<svg width="96" height="96" viewBox="0 0 96 96" fill="none" xmlns="http://www.w3.org/2000/svg">
  <rect x="8" y="8" width="80" height="80" rx="20" fill="#F6F0E4"/>
  <rect x="16" y="18" width="10" height="60" rx="5" fill="#D2B48B"/>
  <rect x="29" y="18" width="10" height="60" rx="5" fill="#C49A6C"/>
  <rect x="43" y="18" width="10" height="60" rx="5" fill="#B88958"/>
  <rect x="57" y="18" width="10" height="60" rx="5" fill="#C49A6C"/>
  <rect x="70" y="18" width="10" height="60" rx="5" fill="#D2B48B"/>
  <g opacity="0.78" stroke="#8E6A47" stroke-width="2.5" stroke-linecap="round">
    <path d="M21 24V72"/>
    <path d="M34 24V72"/>
    <path d="M48 24V72"/>
    <path d="M62 24V72"/>
    <path d="M75 24V72"/>
  </g>
  <g opacity="0.88" stroke="#F6F0E4" stroke-width="3" stroke-linecap="round">
    <path d="M16 33H26"/>
    <path d="M29 33H39"/>
    <path d="M43 33H53"/>
    <path d="M57 33H67"/>
    <path d="M70 33H80"/>
    <path d="M16 48H26"/>
    <path d="M29 48H39"/>
    <path d="M43 48H53"/>
    <path d="M57 48H67"/>
    <path d="M70 48H80"/>
    <path d="M16 63H26"/>
    <path d="M29 63H39"/>
    <path d="M43 63H53"/>
    <path d="M57 63H67"/>
    <path d="M70 63H80"/>
  </g>
</svg>
